# xmcd
#
# Track frame offsets: 
#        150
#        12480
#        22194
#        34905
#        49141
#        62377
#        76366
#        88286
#        100262
#        113162
#        127654
#        141943
#        158370
#        170013
#        186112
#        199539
#        214743
#        229430
#        242603
#        261399
#        285032
#        297638
#        310954
#        321686
#        345331
#
# Disc length: 4745 seconds
#
# Revision: 0
# Processed by: cddbd v1.5.2PL0 Copyright (c) Steve Scherf et al.
# Submitted via: ExactAudioCopy v0.99pb5
#
DISCID=6d128719
DTITLE=Jimmy Witherspoon - Doctor Blues [CD2]
DYEAR=2009
DGENRE=Blues
TTITLE0=Live So Easy
TTITLE1=I Can Make It With You
TTITLE2=When The Light Go Out
TTITLE3=Danger
TTITLE4=It Ain't No Secret
TTITLE5=Crying
TTITLE6=I Don't Know Why (Why Do I Love You Like I Do)
TTITLE7=Ain't Nobody's Business
TTITLE8=Congratulations
TTITLE9=Going Down Slow
TTITLE10=Garfield Avenue
TTITLE11=Mack And Jay
TTITLE12=Just To Prove My Love To You
TTITLE13=When I've Been Drinking
TTITLE14=All That's Good
TTITLE15=It Ain't What You're Thinking
TTITLE16=Wee Baby Blues
TTITLE17=Times Are Changing
TTITLE18=There's Good Rockin' Tonight
TTITLE19=Midnight Blues (Red Shirt)
TTITLE20=S.K. Blues
TTITLE21=Then The Lights Go Out
TTITLE22=Spoon's Blues
TTITLE23=Sweet's Blues
TTITLE24='T Ain't Nobody's Business
EXTD=
EXTT0=
EXTT1=
EXTT2=
EXTT3=
EXTT4=
EXTT5=
EXTT6=
EXTT7=
EXTT8=
EXTT9=
EXTT10=
EXTT11=
EXTT12=
EXTT13=
EXTT14=
EXTT15=
EXTT16=
EXTT17=
EXTT18=
EXTT19=
EXTT20=
EXTT21=
EXTT22=
EXTT23=
EXTT24=
PLAYORDER=
